<?xml version="1.0" encoding="UTF-8" standalone="no"?>
<!-- Uploaded to: SVG Repo, www.svgrepo.com, Generator: SVG Repo Mixer Tools -->

<svg
   fill="#000000"
   width="800"
   height="800"
   viewBox="0 0 24 24"
   version="1.1"
   id="svg1"
   xmlns="http://www.w3.org/2000/svg"
   xmlns:svg="http://www.w3.org/2000/svg">
  <defs
     id="defs1" />
  <path
     d="m 11.999722,23.835746 c -0.325976,0 -0.630615,-0.08772 -0.915103,-0.239444 L 8.1935089,21.879891 C 7.76085,21.639261 7.9777721,21.551544 8.1081625,21.507686 8.6961045,21.3121 8.8051582,21.269427 9.4132514,20.9233 c 0.066381,-0.04386 0.1529124,-0.02371 0.2192929,0.02015 l 2.2166357,1.327611 c 0.08772,0.04267 0.196771,0.04267 0.261966,0 l 8.675701,-5.022399 c 0.08772,-0.04267 0.13039,-0.130391 0.13039,-0.239445 V 6.9833854 c 0,-0.1078684 -0.04267,-0.1955856 -0.13039,-0.2382588 L 12.111146,1.7440638 c -0.08653,-0.043859 -0.195585,-0.043859 -0.261966,0 L 3.1711094,6.7439413 C 3.0845777,6.7866145 3.0407191,6.8968536 3.0407191,6.9822 v 10.024648 c 0,0.08653 0.043859,0.196771 0.1303903,0.239444 l 2.3707338,1.371469 c 1.282567,0.649581 2.0886164,-0.11261 2.0886164,-0.871244 V 7.8534447 c 0,-0.1303904 0.1078684,-0.2619661 0.2607808,-0.2619661 h 1.1095033 c 0.1280197,0 0.2607808,0.1090537 0.2607808,0.2619661 v 9.8942573 c 0,1.717597 -0.9340691,2.719232 -2.565134,2.719232 -0.5002248,0 -0.8913959,0 -2.0008992,-0.545269 L 2.41366,18.618947 A 1.8373187,1.8373187 0 0 1 1.4997421,17.030555 V 7.004722 c 0,-0.6519518 0.3473125,-1.2612304 0.9139179,-1.5872063 l 8.672144,-5.02239943 a 1.9404456,1.9404456 0 0 1 1.830207,0 L 21.58934,5.4175157 c 0.567791,0.3247906 0.913918,0.9352545 0.913918,1.5872063 v 10.025833 c 0,0.650766 -0.347313,1.260045 -0.913918,1.588392 l -8.673329,5.021214 c -0.285674,0.13039 -0.61165,0.195585 -0.916289,0.195585 z m 2.674188,-6.894093 c -3.805028,0 -4.58737,-1.740119 -4.58737,-3.217086 0,-0.130391 0.109054,-0.261966 0.260781,-0.261966 h 1.13084 c 0.13039,0 0.238258,0.08653 0.238258,0.218107 0.174249,1.150991 0.673289,1.717597 2.980013,1.717597 1.825465,0 2.610177,-0.414879 2.610177,-1.392806 0,-0.56542 -0.219292,-0.977928 -3.066544,-1.260045 -2.369548,-0.237074 -3.847701,-0.762191 -3.847701,-2.652851 0,-1.7602701 1.478153,-2.8045783 3.95794,-2.8045783 2.782057,0 4.152341,0.9589618 4.325404,3.0440223 a 0.35205396,0.35205396 0 0 1 -0.06638,0.195585 c -0.04386,0.04267 -0.107869,0.08653 -0.173064,0.08653 h -1.129655 a 0.25129778,0.25129778 0 0 1 -0.239444,-0.1944 C 16.805199,9.2201727 16.131911,8.8313723 14.350304,8.8313723 c -2.002084,0 -2.241528,0.6958104 -2.241528,1.2173717 0,0.62943 0.280932,0.825015 2.980012,1.173513 2.674188,0.347313 3.935418,0.847538 3.935418,2.719232 -0.02371,1.914367 -1.587206,3.000164 -4.350296,3.000164 z"
     id="path1"
     style="stroke-width:1.18537" />
</svg>
