<?xml version="1.0" encoding="utf-8"?>
<!-- Svg Vector Icons : http://www.onlinewebfonts.com/icon -->
<!DOCTYPE svg PUBLIC "-//W3C//DTD SVG 1.1//EN" "http://www.w3.org/Graphics/SVG/1.1/DTD/svg11.dtd">
<svg version="1.1" xmlns="http://www.w3.org/2000/svg" xmlns:xlink="http://www.w3.org/1999/xlink" x="0px" y="0px" viewBox="0 0 256 256" enable-background="new 0 0 256 256" xml:space="preserve">
<metadata> Svg Vector Icons : http://www.onlinewebfonts.com/icon </metadata>
<g><g><path fill="#000000" d="M217,5c-31.1,8.5-62.2,17-93.3,25.5c-4.5,8.5-9,17-13.6,25.5c-34.4-1.1-53,13.8-62.8,35.6C34.9,104,22.5,116.4,10,128.9c31.7,24.5,46.2,71.3,98.4,69.5c22,38.1,66.2,37.3,110.3,52.6c16.9-26.8,31.7-99.3,13.6-120.5c2.7-11.1,11.3-17.2,13.6-25.5C248.1,97.2,221,8.5,217,5z M113.5,59.3c22.1-5.6,44.1-11.3,66.2-17h5.1c-13.6,23.2-27.2,46.4-40.7,69.6c-11.6,10.5-65.3,4-84.9,3.4C77.3,96.6,95.4,77.9,113.5,59.3z M59.2,140.7h83.1c14.2,24.3,28.3,48.7,42.4,73C124,203.9,89.1,180.4,59.2,140.7z M206.8,201.8h-1.7c-13.6-23.7-27.1-47.5-40.7-71.3c13.6-25.4,27.1-50.9,40.7-76.3C235.4,105.7,216.4,147.9,206.8,201.8z"/></g></g>
</svg>