<?xml version="1.0" encoding="UTF-8" standalone="no"?>
<!-- Uploaded to: SVG Repo, www.svgrepo.com, Generator: SVG Repo Mixer Tools -->

<svg
   width="800"
   height="800"
   viewBox="0 0 24 24"
   version="1.1"
   id="svg1"
   xmlns="http://www.w3.org/2000/svg"
   xmlns:svg="http://www.w3.org/2000/svg">
  <defs
     id="defs1" />
  <title
     id="title1">discord_fill</title>
  <g
     id="页面-1"
     stroke="none"
     stroke-width="1"
     fill="none"
     fill-rule="evenodd">
    <g
       id="Logo"
       transform="translate(-480,-144)">
      <g
         id="discord_fill"
         transform="translate(480,144)">
        <path
           d="M 24,0 V 24 H 0 V 0 Z m -11.40651,23.257841 -0.01155,0.0017 -0.07106,0.03553 -0.019,0.0037 v 0 l -0.01516,-0.0037 -0.07106,-0.03553 c -0.0098,-0.0031 -0.01861,-4.89e-4 -0.02351,0.0054 l -0.0041,0.01092 -0.01709,0.427279 0.005,0.02039 0.01101,0.01222 0.103573,0.07398 0.01487,0.0039 v 0 l 0.01177,-0.0039 0.103575,-0.07398 0.0126,-0.01604 v 0 l 0.0034,-0.01656 -0.01709,-0.427279 c -0.002,-0.01013 -0.0085,-0.01653 -0.01607,-0.01799 z m 0.264901,-0.112555 -0.01384,0.002 -0.184705,0.09235 -0.01,0.01024 v 0 l -0.0027,0.01121 0.0179,0.429528 0.0048,0.01278 v 0 l 0.0085,0.0071 0.200954,0.09275 c 0.01209,0.0037 0.02289,-2.52e-4 0.02849,-0.008 l 0.004,-0.01406 -0.03415,-0.614631 c -0.0024,-0.01194 -0.01027,-0.01953 -0.01929,-0.02125 z m -0.715344,0.002 c -0.0098,-0.0049 -0.02087,-0.002 -0.02741,0.0053 l -0.0057,0.01394 -0.03415,0.614631 c -6.39e-4,0.0115 0.007,0.0207 0.01688,0.0234 l 0.01561,-0.0013 0.200955,-0.09275 0.0094,-0.0081 v 0 l 0.0039,-0.0118 0.0179,-0.429528 -0.0032,-0.01259 v 0 l -0.0095,-0.0089 z"
           id="MingCute"
           fill-rule="nonzero" />
        <path
           d="m 15.518275,2.6268657 c 0.872075,0 1.79184,0.3043338 2.636441,0.6404763 l 0.617437,0.2538128 v 0 c 1.476149,0.618696 2.305904,1.9161931 2.949251,3.342512 1.043579,2.3135782 1.768239,5.3985292 2.019204,7.7439172 0.119273,1.114229 0.149267,2.233731 -0.06585,2.986626 -0.230017,0.80487 -1.016046,1.374437 -1.778666,1.822618 L 21.51942,19.63133 v 0 l -0.391803,0.216998 c -0.20158,0.112624 -0.408346,0.224347 -0.614677,0.333278 l -0.612073,0.316528 v 0 l -0.839489,0.418563 v 0 l -0.675866,0.332677 v 0 c -0.578673,0.289395 -1.282477,0.05483 -1.571872,-0.523957 -0.289395,-0.57879 -0.05483,-1.282477 0.523957,-1.571872 l 0.926767,-0.456705 v 0 L 17.58411,17.983663 c -1.628344,0.668538 -3.547021,1.046157 -5.584268,1.046157 -2.0373645,0 -3.9560416,-0.377619 -5.5844097,-1.046157 l -0.6791175,0.712006 0.9292508,0.457876 v 0 c 0.5787548,0.289395 0.8133522,0.993082 0.523969,1.571872 -0.2893833,0.57879 -0.9931521,0.813352 -1.5719186,0.523957 L 4.9806893,20.933383 C 4.5088544,20.700071 4.0371028,20.466862 3.5706557,20.223135 L 2.4837259,19.63133 v 0 L 2.1070724,19.416828 C 1.3444828,18.968647 0.55839882,18.39908 0.32844815,17.59421 0.11335855,16.841315 0.14332909,15.721813 0.26255513,14.607584 0.51349691,12.262196 1.2381677,9.177245 2.2817588,6.8636668 2.9251296,5.4373596 3.7548496,4.1398508 5.2310335,3.5211548 6.2106882,3.1105654 7.3971842,2.6268657 8.4848524,2.6268657 c 0.706487,0 1.2614576,0.6505294 1.1590211,1.3441869 0.7584375,-0.1130866 1.5473025,-0.1725473 2.3559685,-0.1725473 0.809954,0 1.599991,0.059648 2.359565,0.173098 -0.102753,-0.6938098 0.452252,-1.3447376 1.158868,-1.3447376 z M 8.191966,10.242523 c -1.1323897,0 -2.0503693,0.91798 -2.0503693,2.050369 0,1.13239 0.9179796,2.05037 2.0503693,2.05037 1.1323897,0 2.050416,-0.91798 2.050416,-2.05037 0,-1.132389 -0.9180263,-2.050369 -2.050416,-2.050369 z m 7.615704,0 c -1.132389,0 -2.050369,0.91798 -2.050369,2.050369 0,1.13239 0.91798,2.05037 2.050369,2.05037 1.13239,0 2.05037,-0.91798 2.05037,-2.05037 0,-1.132389 -0.91798,-2.050369 -2.05037,-2.050369 z"
           id="形状"
           fill="#09244B"
           style="fill:#000000;stroke-width:1.17164" />
      </g>
    </g>
  </g>
</svg>
