<?xml version="1.0" encoding="UTF-8" standalone="no"?>
<!-- Uploaded to: SVG Repo, www.svgrepo.com, Generator: SVG Repo Mixer Tools -->

<svg
   fill="#000000"
   width="790.77649"
   height="786.16937"
   viewBox="0 0 23.723295 23.585081"
   xml:space="preserve"
   version="1.1"
   id="svg1"
   xmlns="http://www.w3.org/2000/svg"
   xmlns:svg="http://www.w3.org/2000/svg"><defs
     id="defs1" /><path
     fill-rule="evenodd"
     clip-rule="evenodd"
     d="M 22.883492,2.4945043 17.998865,0.14589794 A 1.4613551,1.4613551 0 0 0 17.41883,0.002372 L 17.36901,0 h -0.0427 A 1.4803337,1.4803337 0 0 0 16.303836,0.431764 L 6.9616014,8.9555442 2.8906837,5.8679572 a 0.98451682,0.98451682 0 0 0 -1.2620794,0.05575 L 0.32263684,7.1110579 A 0.98451682,0.98451682 0 0 0 0,7.8369908 v 0.00474 C 0,8.1086179 0.10675484,8.3766912 0.32263684,8.5724084 L 3.8526634,11.792851 0.32263684,15.013288 a 0.98926148,0.98926148 0 0 0 0.001186,1.461355 l 1.30596746,1.187351 a 0.98214449,0.98214449 0 0 0 1.2632655,0.05575 l 4.0709178,-3.087587 9.3422344,8.52378 a 1.4708444,1.4708444 0 0 0 0.90623,0.424647 l 0.01423,0.0012 c 0.02135,0.0024 0.04389,0.0024 0.06524,0.0036 0.02965,0.0012 0.05931,0.0024 0.08896,0.0012 l 0.03203,-0.0012 c 0.200462,-0.0071 0.399738,-0.05338 0.588338,-0.144712 l 4.884627,-2.348606 C 23.3971,20.844529 23.723295,20.324989 23.723295,19.75563 V 3.830126 c 0,-0.5705453 -0.326195,-1.0888994 -0.839804,-1.3356217 z M 17.785355,17.166177 10.701579,11.791664 17.785355,6.4171515 Z"
     id="path1"
     style="stroke-width:1.18616" /></svg>
